<?xml version="1.0" encoding="utf-8"?>
<!-- Generator: Adobe Illustrator 22.0.1, SVG Export Plug-In . SVG Version: 6.00 Build 0)  -->
<svg version="1.1" id="Layer_1" xmlns="http://www.w3.org/2000/svg" xmlns:xlink="http://www.w3.org/1999/xlink" x="0px" y="0px"
	 viewBox="0 0 80 80" style="enable-background:new 0 0 80 80;" xml:space="preserve">
<style type="text/css">
	.st0{fill:#FFFFFF;stroke:#000000;stroke-miterlimit:10;}
</style>
<path class="st0" d="M62.1,63.8H36c-2.7,0-4.9-2.2-4.9-4.9V15.4c0-2.7,2.2-4.9,4.9-4.9h26.1c2.7,0,4.9,2.2,4.9,4.9V59
	C67,61.6,64.8,63.8,62.1,63.8z"/>
<path class="st0" d="M65.9,64.4l-15.7,8.4c-1.3,0.7-2.8-0.4-2.8-2V22.4c0-0.9,0.4-1.7,1.1-2L64.2,12c1.3-0.7,2.8,0.4,2.8,2v48.3
	C67,63.3,66.6,64.1,65.9,64.4z"/>
<path class="st0" d="M51.3,45.5L51.3,45.5c-0.5,0-0.9-0.4-0.9-0.9v-3.5c0-0.5,0.4-0.9,0.9-0.9l0,0c0.5,0,0.9,0.4,0.9,0.9v3.5
	C52.1,45.1,51.7,45.5,51.3,45.5z"/>
<path class="st0" d="M45.4,39.1l-2.5-3l0,0.1l-7.1-8.5c-0.7-0.8-1.8-0.8-2.5,0c-0.7,0.8-0.7,2.2,0,3l4.4,5.3h-25
	c-1.5,0-2.7,1.4-2.7,3.2v0c0,1.8,1.2,3.2,2.7,3.2h25l-4.4,5.3c-0.7,0.8-0.7,2.2,0,3c0.7,0.8,1.8,0.8,2.5,0l7.1-8.5l0,0.1l2.5-3V39.1
	L45.4,39.1z"/>
</svg>
