<?xml version="1.0" encoding="utf-8"?>
<!-- Generator: Adobe Illustrator 22.1.0, SVG Export Plug-In . SVG Version: 6.00 Build 0)  -->
<svg version="1.1" id="Layer_1" xmlns="http://www.w3.org/2000/svg" xmlns:xlink="http://www.w3.org/1999/xlink" x="0px" y="0px"
	 viewBox="0 0 240 240" style="enable-background:new 0 0 240 240;" xml:space="preserve">
<style type="text/css">
	.st0{fill:#B58574;}
	.st1{fill:#A92D2D;}
	.st2{fill:#FFFFFF;stroke:#000000;stroke-miterlimit:10;}
	.st3{display:none;fill:#FFFFFF;stroke:#000000;stroke-width:2;stroke-miterlimit:10;}
	.st4{fill:#E55353;}
	.st5{fill:#F7CCAD;}
	.st6{fill:none;stroke:#FFFFFF;stroke-width:3;stroke-miterlimit:10;}
	.st7{fill:#FFFFFF;}
	.st8{fill:#3A3A38;}
	.st9{fill:#424C4A;stroke:#424C4A;stroke-width:2;stroke-miterlimit:10;}
	.st10{fill:#7C4D3E;}
	.st11{fill:none;stroke:#7C4D3E;stroke-width:2;stroke-miterlimit:10;}
	.st12{fill:#E8E4A3;}
</style>
<path class="st0" d="M33.3,187.4c-3.2,3.5-7.8,5.6-12.8,5.6C10.8,193,3,185.2,3,175.5c0-3.6,1.1-7,3-9.8c1.8,3.1,4.3,6.1,7.4,8.9
	C18.5,179.3,25.2,183.6,33.3,187.4z"/>
<path class="st1" d="M237.9,155.7c0,2.1-0.3,4.2-0.9,6.2c-3.1,10.8-14.3,20.5-31,28c-0.6,0.3-1.2,0.5-1.8,0.8
	c-0.5,0.2-1,0.4-1.4,0.6c-7,2.9-14.9,5.5-23.5,7.7c-0.5,0.1-0.9,0.2-1.4,0.3c-2.9,0.7-5.8,1.3-8.8,1.9c-2.3,0.5-4.7,0.9-7.1,1.3
	c-3.4,0.5-6.9,1-10.4,1.5c-4.1,0.5-8.3,0.9-12.5,1.2c-6.5,0.5-13.1,0.7-19.8,0.7c-1.7,0-3.4,0-5.1-0.1c-4.8-0.1-9.5-0.3-14-0.6
	c-8.8-0.6-17.3-1.6-25.4-3c-0.8-0.1-1.6-0.3-2.5-0.4c-1.1-0.2-2.1-0.4-3.2-0.6c-3.4-0.7-6.6-1.4-9.8-2.2c-3.3-0.8-6.5-1.7-9.5-2.6
	c-4.4-1.4-8.6-2.8-12.6-4.4c-1.3-0.5-2.6-1.1-3.9-1.7c-0.3-0.1-0.5-0.2-0.8-0.4c-0.4-0.2-0.7-0.3-1.1-0.5c-8.1-3.8-14.8-8-19.9-12.7
	c-3.1-2.8-5.6-5.8-7.4-8.9c-1-1.7-1.8-3.4-2.3-5.1c-0.7-2.3-1.1-4.6-1.1-6.9c0-23.6,38.8-43.5,90.9-48.8c8.9-0.9,18.2-1.4,27.7-1.4
	s18.8,0.5,27.7,1.4C199.1,112.2,237.9,132,237.9,155.7z"/>
<path class="st2" d="M40.4,86.1"/>
<path class="st3" d="M130.1,131.1c-1.2-1.4-4-1.8-6.8-0.9c-3.4,1.1-5.7,3.6-5,5.7v0.1C122.1,137,126.4,134.4,130.1,131.1z"/>
<path class="st4" d="M237.3,146.5c0,16.7-23.5,31.3-58.6,39.2c-17.6,4-38.1,6.3-60.1,6.3s-42.4-2.3-60.1-6.3
	C23.5,177.8,0,163.2,0,146.5C0,125,38.8,107,90.9,102.2c8.9-0.8,18.2-1.3,27.7-1.3s18.8,0.4,27.7,1.3
	C198.6,107,237.3,125,237.3,146.5z"/>
<g>
	<ellipse class="st1" cx="26.6" cy="143" rx="7.5" ry="4.8"/>
	<ellipse class="st1" cx="212.9" cy="143" rx="7.5" ry="4.8"/>
	<ellipse class="st1" cx="60.7" cy="170.2" rx="7.5" ry="5.3"/>
	<ellipse class="st1" cx="176.7" cy="170.2" rx="7.5" ry="5.3"/>
	<ellipse class="st1" cx="118.1" cy="177.9" rx="8.5" ry="6.1"/>
</g>
<path class="st2" d="M64.9,89.3"/>
<g>
	<path class="st5" d="M202.9,105c0,15.6-4.2,30.2-11.6,42.7c-10.5,2.8-21.9,5.1-33.9,6.6c-12.2,1.6-25.1,2.4-38.4,2.4
		c-10.6,0-20.9-0.5-30.8-1.5c-14.9-1.5-28.9-4-41.6-7.4C39.2,135.3,35,120.7,35,105.1C35,70.6,55.8,40.9,85.6,28
		c10.1-4.5,21.4-7,33.3-7s23.2,2.5,33.4,6.9C182.1,40.8,202.9,70.5,202.9,105z"/>
	<g>
		<path class="st6" d="M55.4,73.6c0,0,7.7-24.4,37.2-33.4"/>
		<circle class="st7" cx="53.8" cy="78.4" r="2.2"/>
	</g>
</g>
<path class="st0" d="M157.3,93.8v60.5c-12.2,1.6-25.1,2.4-38.4,2.4c-10.6,0-20.9-0.5-30.8-1.5c0-0.3,0-0.5,0-0.8V93.8
	c0-19,15.6-34.6,34.6-34.6c9.5,0,18.2,3.9,24.5,10.2C153.4,75.6,157.3,84.3,157.3,93.8z"/>
<path class="st7" d="M125.5,84l-22.7,4.9c-1.1,2.1-1.8,4.5-1.8,7.1c0,8.4,6.8,15.2,15.1,15.2s15.2-6.8,15.2-15.2
	C131.4,91.1,129.1,86.8,125.5,84z"/>
<rect x="101.8" y="78.5" transform="matrix(0.9469 -0.3214 0.3214 0.9469 -19.6452 41.5122)" class="st8" width="28.2" height="3.5"/>
<path class="st9" d="M104.8,132c0,0,28-14.5,34.6-9C147.2,129.5,114.4,167,104.8,132z"/>
<circle class="st9" cx="111.2" cy="98.6" r="2.6"/>
<path class="st0" d="M69,201.1C68.4,210,61,217,52,217c-9.4,0-17-7.6-17-17c0-3,0.8-5.7,2.1-8.1c3.9,1.6,8.1,3.1,12.6,4.4
	c3.1,0.9,6.2,1.8,9.5,2.6C62.3,199.7,65.6,200.5,69,201.1z"/>
<path class="st0" d="M205,200c0,9.9-8.1,18-18,18c-9.5,0-17.3-7.4-18-16.8c3-0.6,5.9-1.2,8.8-1.9c0.5-0.1,0.9-0.2,1.4-0.3
	c8.6-2.1,16.5-4.7,23.5-7.7C204.2,193.9,205,196.8,205,200z"/>
<path class="st0" d="M157.3,93.7v60.5c-12.2,1.6-25.1,2.4-38.4,2.4c-10.6,0-20.9-0.5-30.8-1.5c0-0.3,0-0.5,0-0.8V93.7
	c0-19,15.6-34.6,34.6-34.6c9.5,0,18.2,3.9,24.5,10.2C153.4,75.5,157.3,84.2,157.3,93.7z"/>
<g>
	
		<rect x="101.8" y="78.4" transform="matrix(0.9968 -7.967826e-02 7.967826e-02 0.9968 -6.0211 9.4902)" class="st8" width="28.2" height="3.5"/>
	<g>
		<path class="st7" d="M125.5,83.9l-22.7,4.9c-1.1,2.1-1.8,4.5-1.8,7.1c0,8.4,6.8,15.2,15.1,15.2s15.2-6.8,15.2-15.2
			C131.4,91,129.1,86.7,125.5,83.9z"/>
		<circle class="st9" cx="111.2" cy="98.5" r="2.6"/>
	</g>
</g>
<g>
	<ellipse transform="matrix(0.8921 -0.4518 0.4518 0.8921 -20.7686 73.4181)" class="st10" cx="143.3" cy="80.2" rx="4" ry="4.9"/>
	<ellipse transform="matrix(0.8921 -0.4518 0.4518 0.8921 -23.2637 77.5116)" class="st10" cx="150.7" cy="87.5" rx="2.5" ry="3"/>
</g>
<g>
	<path class="st11" d="M130.1,59.9c0,0,8-17.4,18.7-11.5"/>
	<circle class="st10" cx="148.7" cy="48.4" r="3.4"/>
</g>
<path class="st11" d="M139.4,63.5c0,0,10.4-13.4,22.6-8.2"/>
<circle class="st10" cx="161.9" cy="55.2" r="3.4"/>
<g>
	<path class="st9" d="M104.6,132.4c0,0,1.8-0.9,4.6-2.2c0.7-0.3,1.5-0.7,2.3-1.1c5.1-2.3,12.2-5.2,18.1-6.4c0.8-0.2,1.5-0.3,2.3-0.4
		c3.2-0.4,5.8-0.2,7.4,1C147,129.9,114.2,167.4,104.6,132.4z"/>
	<path class="st12" d="M111.5,129.1l-1.5,9.5l-0.8-8.5C109.9,129.8,110.7,129.5,111.5,129.1z"/>
	<path class="st12" d="M131.9,122.3l-1.4,9.2l-0.9-8.8C130.4,122.6,131.1,122.4,131.9,122.3z"/>
</g>
</svg>
