<?xml version="1.0" encoding="utf-8"?>
<!-- Generator: Adobe Illustrator 22.0.1, SVG Export Plug-In . SVG Version: 6.00 Build 0)  -->
<svg version="1.1" id="Layer_1" xmlns="http://www.w3.org/2000/svg" xmlns:xlink="http://www.w3.org/1999/xlink" x="0px" y="0px"
	 viewBox="0 0 240 240" style="enable-background:new 0 0 240 240;" xml:space="preserve">
<style type="text/css">
	.st0{fill:#A92D2D;}
	.st1{fill:#FFFFFF;stroke:#000000;stroke-miterlimit:10;}
	.st2{display:none;fill:#FFFFFF;stroke:#000000;stroke-width:2;stroke-miterlimit:10;}
	.st3{fill:#E55353;}
	.st4{fill:#F7CCAD;}
	.st5{fill:none;stroke:#FFFFFF;stroke-width:3;stroke-miterlimit:10;}
	.st6{fill:#FFFFFF;}
	.st7{fill:#424C4A;stroke:#424C4A;stroke-width:2;stroke-miterlimit:10;}
	.st8{fill:#B58574;}
	.st9{fill:#3A3A38;}
	.st10{fill:#7C4D3E;}
	.st11{fill:none;stroke:#7C4D3E;stroke-width:2;stroke-miterlimit:10;}
	.st12{fill:#E8E4A3;}
</style>
<path class="st0" d="M237.9,155.7c0,2.1-0.3,4.2-0.9,6.2c-3.1,10.8-14.3,20.5-31,28c-0.6,0.3-1.2,0.5-1.8,0.8
	c-7.4,3.2-15.8,6-24.9,8.3c-0.5,0.1-0.9,0.2-1.4,0.3c-5.1,1.2-10.4,2.3-15.9,3.2c-3.4,0.5-6.9,1-10.4,1.5c-4.1,0.5-8.3,0.9-12.5,1.2
	c-6.5,0.5-13.1,0.7-19.8,0.7c-1.7,0-3.4,0-5.1-0.1c-4.8-0.1-9.5-0.3-14-0.6c-8.8-0.6-17.3-1.6-25.4-3c-0.8-0.1-1.6-0.3-2.5-0.4
	c-4.5-0.8-8.8-1.7-13-2.8c-3.3-0.8-6.5-1.7-9.5-2.6c-5.9-1.8-11.4-3.9-16.5-6.1c-0.3-0.1-0.5-0.2-0.8-0.4c-8.6-3.9-15.7-8.3-21-13.2
	c-4.8-4.4-8.1-9.1-9.7-14c-0.7-2.3-1.1-4.6-1.1-6.9c0-23.6,38.8-43.5,90.9-48.8c8.9-0.9,18.2-1.4,27.7-1.4s18.8,0.5,27.7,1.4
	C199.1,112.2,237.9,132,237.9,155.7z"/>
<path class="st1" d="M40.4,86.1"/>
<path class="st2" d="M130.1,131.1c-1.2-1.4-4-1.8-6.8-0.9c-3.4,1.1-5.7,3.6-5,5.7v0.1C122.1,137,126.4,134.4,130.1,131.1z"/>
<g>
	<path class="st3" d="M237.3,146.5c0,16.7-23.5,31.3-58.6,39.2c-17.6,4-38.1,6.3-60.1,6.3s-42.4-2.3-60.1-6.3
		C23.5,177.8,0,163.2,0,146.5C0,125,38.8,107,90.9,102.2c8.9-0.8,18.2-1.3,27.7-1.3s18.8,0.4,27.7,1.3
		C198.6,107,237.3,125,237.3,146.5z"/>
	<g>
		<ellipse class="st0" cx="26.6" cy="143" rx="7.5" ry="4.8"/>
		<ellipse class="st0" cx="212.9" cy="143" rx="7.5" ry="4.8"/>
		<ellipse class="st0" cx="60.7" cy="170.2" rx="7.5" ry="5.3"/>
		<ellipse class="st0" cx="176.7" cy="170.2" rx="7.5" ry="5.3"/>
		<ellipse class="st0" cx="118.1" cy="177.9" rx="8.5" ry="6.1"/>
	</g>
</g>
<path class="st1" d="M64.9,89.3"/>
<g>
	<path class="st4" d="M202.9,105c0,15.6-4.2,30.2-11.6,42.7c-10.5,2.8-21.9,5.1-33.9,6.6c-12.2,1.6-25.1,2.4-38.4,2.4
		c-10.6,0-20.9-0.5-30.8-1.5c-14.9-1.5-28.9-4-41.6-7.4C39.2,135.3,35,120.7,35,105.1C35,70.6,55.8,40.9,85.6,28
		c10.1-4.5,21.4-7,33.3-7s23.2,2.5,33.4,6.9C182.1,40.8,202.9,70.5,202.9,105z"/>
	<g>
		<path class="st5" d="M55.4,73.6c0,0,7.7-24.4,37.2-33.4"/>
		<circle class="st6" cx="53.8" cy="78.4" r="2.2"/>
	</g>
</g>
<path class="st7" d="M104.8,132c0,0,28-14.5,34.6-9C147.2,129.5,114.4,167,104.8,132z"/>
<path class="st8" d="M49.6,196.3C46,203.2,38.8,208,30.5,208C18.6,208,9,198.4,9,186.5c0-3.5,0.9-6.9,2.4-9.8
	c5.3,4.9,12.4,9.3,21,13.2c0.3,0.1,0.5,0.2,0.8,0.4C38.2,192.5,43.7,194.5,49.6,196.3z"/>
<path class="st8" d="M100,205.2c-2.4,4.1-6.9,6.8-12,6.8c-6.3,0-11.6-4.1-13.4-9.8C82.7,203.5,91.2,204.6,100,205.2z"/>
<path class="st8" d="M179,206c0,11-9,20-20,20s-20-9-20-20c0-0.3,0-0.6,0-0.9c4.3-0.3,8.4-0.7,12.5-1.2c3.5-0.4,7-0.9,10.4-1.5
	c5.5-0.9,10.8-2,15.9-3.2C178.6,201.4,179,203.6,179,206z"/>
<g>
	<path class="st8" d="M157.5,93.4v60.5c-12.2,1.6-25.1,2.4-38.4,2.4c-10.6,0-20.9-0.5-30.8-1.5c0-0.3,0-0.5,0-0.8V93.4
		c0-19,15.6-34.6,34.6-34.6c9.5,0,18.2,3.9,24.5,10.2C153.6,75.2,157.5,83.9,157.5,93.4z"/>
	<g>
		
			<rect x="102" y="78.1" transform="matrix(0.9968 -7.967826e-02 7.967826e-02 0.9968 -5.9916 9.5029)" class="st9" width="28.2" height="3.5"/>
		<g>
			<path class="st6" d="M125.7,83.6L103,88.5c-1.1,2.1-1.8,4.5-1.8,7.1c0,8.4,6.8,15.2,15.1,15.2s15.2-6.8,15.2-15.2
				C131.6,90.7,129.3,86.4,125.7,83.6z"/>
			<circle class="st7" cx="111.4" cy="98.2" r="2.6"/>
		</g>
	</g>
	<g>
		<ellipse transform="matrix(0.8921 -0.4518 0.4518 0.8921 -20.5857 73.4572)" class="st10" cx="143.5" cy="79.8" rx="4" ry="4.9"/>
		<ellipse transform="matrix(0.8921 -0.4518 0.4518 0.8921 -23.0807 77.5507)" class="st10" cx="150.8" cy="87.1" rx="2.5" ry="3"/>
	</g>
	<g>
		<g>
			<path class="st11" d="M130.2,59.6c0,0,6.2-20.1,17.7-16"/>
			<circle class="st10" cx="147.9" cy="43.6" r="3.4"/>
		</g>
		<path class="st11" d="M139.6,63.1c0,0,6-12.5,19.2-11.6"/>
		<circle class="st10" cx="158.7" cy="51.5" r="3.4"/>
	</g>
	<g>
		<path class="st7" d="M104.8,132c0,0,1.8-0.9,4.6-2.2c0.7-0.3,1.5-0.7,2.3-1.1c5.1-2.3,12.2-5.2,18.1-6.4c0.8-0.2,1.5-0.3,2.3-0.4
			c3.2-0.4,5.8-0.2,7.4,1C147.2,129.5,114.4,167,104.8,132z"/>
		<path class="st12" d="M111.7,128.7l-1.5,9.5l-0.8-8.5C110.1,129.5,110.8,129.1,111.7,128.7z"/>
		<path class="st12" d="M132,122l-1.4,9.2l-0.9-8.8C130.5,122.2,131.3,122,132,122z"/>
	</g>
</g>
</svg>
