<?xml version="1.0" encoding="utf-8"?>
<!-- Generator: Adobe Illustrator 22.0.1, SVG Export Plug-In . SVG Version: 6.00 Build 0)  -->
<svg version="1.1" id="Layer_1" xmlns="http://www.w3.org/2000/svg" xmlns:xlink="http://www.w3.org/1999/xlink" x="0px" y="0px"
	 viewBox="0 0 80 80" style="enable-background:new 0 0 80 80;" xml:space="preserve">
<style type="text/css">
	.st0{fill:none;stroke:#FFFFFF;stroke-width:3;stroke-miterlimit:10;}
	.st1{fill:none;stroke:#FFFFFF;stroke-width:4;stroke-miterlimit:10;}
	.st2{fill:#FFFFFF;stroke:#FFFFFF;stroke-width:2;stroke-miterlimit:10;}
	.st3{fill:#FFFFFF;}
</style>
<path class="st0" d="M47,27.7l0.9-7.7h-18l0.9,7.7C21.5,31,14.9,39.9,14.9,50.3c0,13.3,10.7,24,24,24s24-10.7,24-24
	C62.9,39.9,56.3,31,47,27.7z"/>
<path class="st1" d="M51.5,20h-25c-1.9,0-3.5-1.6-3.5-3.5v0c0-1.9,1.6-3.5,3.5-3.5h25c1.9,0,3.5,1.6,3.5,3.5v0
	C55,18.4,53.4,20,51.5,20z"/>
<polygon class="st0" points="44,20 34,20 32,5 46,5 "/>
<circle class="st2" cx="38.9" cy="53" r="3"/>
<path class="st3" d="M56.9,39H21.2c-2,3.2-3.1,7-3.1,11c0,11.6,9.4,21,21,21s21-9.4,21-21C60,46,58.9,42.2,56.9,39z M39,60.5
	c-1.9,0-3.7-0.4-5.2-1.1l-2,2l-1.1-1.1l1.7-1.7c-1.9-1.3-3.1-3.2-3.1-5.3c0-4,4.3-7.3,9.7-7.3c1.8,0,3.5,0.4,5,1.1l1.9-1.9l1.1,1.1
	l-1.6,1.6c2,1.3,3.3,3.3,3.3,5.4C48.7,57.3,44.4,60.5,39,60.5z"/>
</svg>
