<?xml version="1.0" encoding="utf-8"?>
<!-- Generator: Adobe Illustrator 22.0.1, SVG Export Plug-In . SVG Version: 6.00 Build 0)  -->
<svg version="1.1" id="Layer_1" xmlns="http://www.w3.org/2000/svg" xmlns:xlink="http://www.w3.org/1999/xlink" x="0px" y="0px"
	 viewBox="0 0 80 80" style="enable-background:new 0 0 80 80;" xml:space="preserve">
<style type="text/css">
	.st0{opacity:0.6;fill:#E8AD05;stroke:#FFFFFF;stroke-miterlimit:10;}
	.st1{fill:none;stroke:#E8AD05;stroke-miterlimit:10;}
	.st2{fill:none;stroke:#FFFFFF;stroke-width:3;stroke-miterlimit:10;}
	.st3{fill:none;stroke:#FFFFFF;stroke-width:2;stroke-linecap:round;stroke-miterlimit:10;}
	.st4{fill:none;stroke:#FFFFFF;stroke-width:3;stroke-linecap:round;stroke-miterlimit:10;}
	.st5{fill:#FFFFFF;stroke:#FFFFFF;stroke-width:2;stroke-linecap:round;stroke-miterlimit:10;}
</style>
<circle class="st0" cx="40" cy="40" r="40"/>
<circle class="st1" cx="40" cy="40" r="40"/>
<circle class="st2" cx="40.4" cy="39.7" r="20.4"/>
<path class="st3" d="M49.8,49.8"/>
<path class="st4" d="M46.2,52.1c-3,1.4-6.5,1.7-9.9,0.6c-7.1-2.3-11.1-9.9-8.8-17.1s9.9-11.1,17.1-8.8s11.1,9.9,8.8,17.1
	c-0.5,1.5-1.2,2.9-2.1,4.1"/>
<line class="st3" x1="40.4" y1="16.6" x2="40.4" y2="31.1"/>
<line class="st3" x1="40.7" y1="49.5" x2="40.7" y2="64"/>
<line class="st3" x1="63.8" y1="39.7" x2="49.3" y2="39.7"/>
<line class="st3" x1="31.5" y1="39.6" x2="17" y2="39.6"/>
<circle class="st5" cx="40.7" cy="39.6" r="5.3"/>
</svg>
